<svg width="410" height="273" viewBox="0 0 410 273" xmlns="http://www.w3.org/2000/svg" lang="en" xml:lang="en"><rect x="2" y="2" stroke-width="4" rx="0" width="406" height="269" stroke="#0d1117" fill="#0d1117"/><g font-weight="600" font-size="110pt" font-family="Verdana,Geneva,DejaVu Sans,sans-serif" text-rendering="geometricPrecision"><g transform="translate(0, 21)" fill="#c9d1d9"><g transform="translate(15, 0)"><g transform="scale(0.095)"><text x="0" y="132" textLength="3652" lengthAdjust="spacingAndGlyphs">Language Distribution in Public Repositories</text></g></g><g transform="translate(220, 21)"><circle cx="81" cy="81" r="81" fill="#ffffff"/></g><g transform="translate(221, 22)"><path fill-rule="evenodd" fill="#3178c6" d="M 0.0,80.00000000000001 A 80 80 0 1 1 128.90536714862762 143.3108605537623 L 80,80 Z"/><path fill-rule="evenodd" fill="#b07219" d="M 128.90536714862762,143.3108605537623 A 80 80 0 0 1 33.573585344699886 145.15050285495988 L 80,80 Z"/><path fill-rule="evenodd" fill="#dea584" d="M 33.573585344699886,145.15050285495988 A 80 80 0 0 1 21.467230297606704 134.53361230439984 L 80,80 Z"/><path fill-rule="evenodd" fill="#663399" d="M 21.467230297606704,134.53361230439984 A 80 80 0 0 1 12.89462752086132 123.55305941533908 L 80,80 Z"/><path fill-rule="evenodd" fill="#336790" d="M 12.89462752086132,123.55305941533908 A 80 80 0 0 1 6.385197762116363 111.31869875134153 L 80,80 Z"/><path fill-rule="evenodd" fill="#3572A5" d="M 6.385197762116363,111.31869875134153 A 80 80 0 0 1 2.3928780522381032 99.41995424776314 L 80,80 Z"/><path fill-rule="evenodd" fill="#e34c26" d="M 2.3928780522381032,99.41995424776314 A 80 80 0 0 1 0.43075317339847174 88.29065494682797 L 80,80 Z"/><path fill-rule="evenodd" fill="#f1e05a" d="M 0.43075317339847174,88.29065494682797 A 80 80 0 0 1 0.1388398994285751 84.71116836792109 L 80,80 Z"/><path fill-rule="evenodd" fill="#012456" d="M 0.1388398994285751,84.71116836792109 A 80 80 0 0 1 0.01767257277768408 81.68145750008802 L 80,80 Z"/><path fill-rule="evenodd" fill="#384d54" d="M 0.01767257277768408,81.68145750008802 A 80 80 0 0 1 0.004011639495629993 80.80115306031317 L 80,80 Z"/><path fill-rule="evenodd" fill="#959da5" d="M 0.004011639495629993,80.80115306031317 A 80 80 0 0 1 0.0 80.00000000000003 L 80,80 Z"/></g><g transform="translate(15, 21)"><rect x="0.5" y="0.5" rx="2" width="15" height="15" fill="#3178c6" stroke-width="1" stroke="#ffffff"/><text transform="scale(0.095)" x="263" y="132" textLength="1568" lengthAdjust="spacingAndGlyphs">TypeScript 64.53%</text></g><g transform="translate(15, 42)"><rect x="0.5" y="0.5" rx="2" width="15" height="15" fill="#b07219" stroke-width="1" stroke="#ffffff"/><text transform="scale(0.095)" x="263" y="132" textLength="1038" lengthAdjust="spacingAndGlyphs">Java 20.32%</text></g><g transform="translate(15, 63)"><rect x="0.5" y="0.5" rx="2" width="15" height="15" fill="#dea584" stroke-width="1" stroke="#ffffff"/><text transform="scale(0.095)" x="263" y="132" textLength="946" lengthAdjust="spacingAndGlyphs">Rust 3.21%</text></g><g transform="translate(15, 84)"><rect x="0.5" y="0.5" rx="2" width="15" height="15" fill="#663399" stroke-width="1" stroke="#ffffff"/><text transform="scale(0.095)" x="263" y="132" textLength="903" lengthAdjust="spacingAndGlyphs">CSS 2.77%</text></g><g transform="translate(15, 105)"><rect x="0.5" y="0.5" rx="2" width="15" height="15" fill="#336790" stroke-width="1" stroke="#ffffff"/><text transform="scale(0.095)" x="263" y="132" textLength="1305" lengthAdjust="spacingAndGlyphs">PLpgSQL 2.76%</text></g><g transform="translate(15, 126)"><rect x="0.5" y="0.5" rx="2" width="15" height="15" fill="#3572A5" stroke-width="1" stroke="#ffffff"/><text transform="scale(0.095)" x="263" y="132" textLength="1149" lengthAdjust="spacingAndGlyphs">Python 2.50%</text></g><g transform="translate(15, 147)"><rect x="0.5" y="0.5" rx="2" width="15" height="15" fill="#e34c26" stroke-width="1" stroke="#ffffff"/><text transform="scale(0.095)" x="263" y="132" textLength="1036" lengthAdjust="spacingAndGlyphs">HTML 2.25%</text></g><g transform="translate(15, 168)"><rect x="0.5" y="0.5" rx="2" width="15" height="15" fill="#f1e05a" stroke-width="1" stroke="#ffffff"/><text transform="scale(0.095)" x="263" y="132" textLength="1412" lengthAdjust="spacingAndGlyphs">JavaScript 0.71%</text></g><g transform="translate(15, 189)"><rect x="0.5" y="0.5" rx="2" width="15" height="15" fill="#012456" stroke-width="1" stroke="#ffffff"/><text transform="scale(0.095)" x="263" y="132" textLength="1486" lengthAdjust="spacingAndGlyphs">PowerShell 0.60%</text><rect x="205.5" y="0.5" rx="2" width="15" height="15" fill="#384d54" stroke-width="1" stroke="#ffffff"/><text transform="scale(0.095)" x="2421" y="132" textLength="1414" lengthAdjust="spacingAndGlyphs">Dockerfile 0.18%</text></g><g transform="translate(15, 210)"><rect x="0.5" y="0.5" rx="2" width="15" height="15" fill="#959da5" stroke-width="1" stroke="#ffffff"/><text transform="scale(0.095)" x="263" y="132" textLength="1047" lengthAdjust="spacingAndGlyphs">Other 0.16%</text></g></g></g></svg>