<svg width="410" height="273" viewBox="0 0 410 273" xmlns="http://www.w3.org/2000/svg" lang="en" xml:lang="en"><rect x="2" y="2" stroke-width="4" rx="0" width="406" height="269" stroke="#0d1117" fill="#0d1117"/><g font-weight="600" font-size="110pt" font-family="Verdana,Geneva,DejaVu Sans,sans-serif" text-rendering="geometricPrecision"><g transform="translate(0, 21)" fill="#c9d1d9"><g transform="translate(15, 0)"><g transform="scale(0.095)"><text x="0" y="132" textLength="3652" lengthAdjust="spacingAndGlyphs">Language Distribution in Public Repositories</text></g></g><g transform="translate(220, 21)"><circle cx="81" cy="81" r="81" fill="#ffffff"/></g><g transform="translate(221, 22)"><path fill-rule="evenodd" fill="#3178c6" d="M 0.0,80.00000000000001 A 80 80 0 1 1 142.28602832098838 130.2040902317434 L 80,80 Z"/><path fill-rule="evenodd" fill="#b07219" d="M 142.28602832098838,130.2040902317434 A 80 80 0 0 1 45.32687044874742 152.09558992838643 L 80,80 Z"/><path fill-rule="evenodd" fill="#dea584" d="M 45.32687044874742,152.09558992838643 A 80 80 0 0 1 31.054093817162787 143.27952487132706 L 80,80 Z"/><path fill-rule="evenodd" fill="#663399" d="M 31.054093817162787,143.27952487132706 A 80 80 0 0 1 20.239350382421662 133.18519302667835 L 80,80 Z"/><path fill-rule="evenodd" fill="#336790" d="M 20.239350382421662,133.18519302667835 A 80 80 0 0 1 11.652770966902906 121.57711249590776 L 80,80 Z"/><path fill-rule="evenodd" fill="#f1e05a" d="M 11.652770966902906,121.57711249590776 A 80 80 0 0 1 5.630360373261183 109.48146369821212 L 80,80 Z"/><path fill-rule="evenodd" fill="#3572A5" d="M 5.630360373261183,109.48146369821212 A 80 80 0 0 1 1.8210393714294923 96.97203921267041 L 80,80 Z"/><path fill-rule="evenodd" fill="#e34c26" d="M 1.8210393714294923,96.97203921267041 A 80 80 0 0 1 0.15196136862786602 84.92856233834007 L 80,80 Z"/><path fill-rule="evenodd" fill="#012456" d="M 0.15196136862786602,84.92856233834007 A 80 80 0 0 1 0.01962468828605779 81.77188176732501 L 80,80 Z"/><path fill-rule="evenodd" fill="#384d54" d="M 0.01962468828605779,81.77188176732501 A 80 80 0 0 1 0.004564995910584457 80.85462185000449 L 80,80 Z"/><path fill-rule="evenodd" fill="#959da5" d="M 0.004564995910584457,80.85462185000449 A 80 80 0 0 1 0.0 80.00000000000003 L 80,80 Z"/></g><g transform="translate(15, 21)"><rect x="0.5" y="0.5" rx="2" width="15" height="15" fill="#3178c6" stroke-width="1" stroke="#ffffff"/><text transform="scale(0.095)" x="263" y="132" textLength="1568" lengthAdjust="spacingAndGlyphs">TypeScript 60.80%</text></g><g transform="translate(15, 42)"><rect x="0.5" y="0.5" rx="2" width="15" height="15" fill="#b07219" stroke-width="1" stroke="#ffffff"/><text transform="scale(0.095)" x="263" y="132" textLength="1038" lengthAdjust="spacingAndGlyphs">Java 21.34%</text></g><g transform="translate(15, 63)"><rect x="0.5" y="0.5" rx="2" width="15" height="15" fill="#dea584" stroke-width="1" stroke="#ffffff"/><text transform="scale(0.095)" x="263" y="132" textLength="946" lengthAdjust="spacingAndGlyphs">Rust 3.34%</text></g><g transform="translate(15, 84)"><rect x="0.5" y="0.5" rx="2" width="15" height="15" fill="#663399" stroke-width="1" stroke="#ffffff"/><text transform="scale(0.095)" x="263" y="132" textLength="903" lengthAdjust="spacingAndGlyphs">CSS 2.95%</text></g><g transform="translate(15, 105)"><rect x="0.5" y="0.5" rx="2" width="15" height="15" fill="#336790" stroke-width="1" stroke="#ffffff"/><text transform="scale(0.095)" x="263" y="132" textLength="1305" lengthAdjust="spacingAndGlyphs">PLpgSQL 2.88%</text></g><g transform="translate(15, 126)"><rect x="0.5" y="0.5" rx="2" width="15" height="15" fill="#f1e05a" stroke-width="1" stroke="#ffffff"/><text transform="scale(0.095)" x="263" y="132" textLength="1412" lengthAdjust="spacingAndGlyphs">JavaScript 2.69%</text></g><g transform="translate(15, 147)"><rect x="0.5" y="0.5" rx="2" width="15" height="15" fill="#3572A5" stroke-width="1" stroke="#ffffff"/><text transform="scale(0.095)" x="263" y="132" textLength="1149" lengthAdjust="spacingAndGlyphs">Python 2.60%</text></g><g transform="translate(15, 168)"><rect x="0.5" y="0.5" rx="2" width="15" height="15" fill="#e34c26" stroke-width="1" stroke="#ffffff"/><text transform="scale(0.095)" x="263" y="132" textLength="1036" lengthAdjust="spacingAndGlyphs">HTML 2.42%</text></g><g transform="translate(15, 189)"><rect x="0.5" y="0.5" rx="2" width="15" height="15" fill="#012456" stroke-width="1" stroke="#ffffff"/><text transform="scale(0.095)" x="263" y="132" textLength="1486" lengthAdjust="spacingAndGlyphs">PowerShell 0.63%</text><rect x="205.5" y="0.5" rx="2" width="15" height="15" fill="#384d54" stroke-width="1" stroke="#ffffff"/><text transform="scale(0.095)" x="2421" y="132" textLength="1414" lengthAdjust="spacingAndGlyphs">Dockerfile 0.18%</text></g><g transform="translate(15, 210)"><rect x="0.5" y="0.5" rx="2" width="15" height="15" fill="#959da5" stroke-width="1" stroke="#ffffff"/><text transform="scale(0.095)" x="263" y="132" textLength="1047" lengthAdjust="spacingAndGlyphs">Other 0.17%</text></g></g></g></svg>